<?xml version="1.0" encoding="utf-8"?>
<!-- Generator: Adobe Illustrator 17.1.0, SVG Export Plug-In . SVG Version: 6.00 Build 0)  -->
<!DOCTYPE svg PUBLIC "-//W3C//DTD SVG 1.1//EN" "http://www.w3.org/Graphics/SVG/1.1/DTD/svg11.dtd">
<svg version="1.1" id="Layer_1" xmlns="http://www.w3.org/2000/svg" xmlns:xlink="http://www.w3.org/1999/xlink" x="0px" y="0px"
	 viewBox="724.7 905.4 91.2 91.1" enable-background="new 724.7 905.4 91.2 91.1" xml:space="preserve">
<path fill="#267775" d="M770.2,905.4c12.6,0,23.3,4.4,32.3,13.3c8.9,8.9,13.4,19.6,13.4,32.2v2.9c0,4.7-1.7,8.8-5,12.1
	s-7.4,5-12.1,5c-5.7,0-10.2-2.3-13.7-6.8c-4.1,4.6-9.1,6.8-14.9,6.8c-5.5,0-10.1-2-14-5.9s-5.8-8.6-5.8-14.1s1.9-10.2,5.8-14.1
	c3.9-3.9,8.5-5.9,14-5.9c4.3,0,8.2,1.3,11.8,4c0.9-2.6,2.7-4,5.3-4c1.6,0,2.9,0.6,4,1.7s1.7,2.5,1.7,4v17.1c0,1.6,0.6,2.9,1.7,4
	s2.5,1.6,4,1.6c1.6,0,2.9-0.5,4-1.6s1.6-2.4,1.6-4V951c0-9.5-3.4-17.6-10.1-24.2s-14.8-10-24.1-10s-17.4,3.3-24.1,10
	s-10,14.7-10,24.2s3.4,17.6,10.1,24.2s14.8,10,24.1,10c7.1,0,13.5-2,19.3-5.9c1.3-0.9,2.7-1.2,4.2-0.9c1.6,0.3,2.8,1.1,3.7,2.4
	c0.9,1.3,1.2,2.7,0.9,4.2c-0.3,1.6-1.1,2.8-2.4,3.7c-7.6,5.2-16.1,7.8-25.7,7.8c-12.6,0-23.3-4.4-32.2-13.3s-13.3-19.6-13.3-32.2
	s4.4-23.3,13.3-32.2S757.6,905.4,770.2,905.4z M770.2,959.4c2.4,0,4.4-0.8,6.1-2.5c1.7-1.7,2.5-3.7,2.5-6s-0.8-4.3-2.5-6
	s-3.7-2.5-6.1-2.5c-2.3,0-4.3,0.8-6,2.5c-1.7,1.6-2.5,3.6-2.5,6s0.8,4.4,2.5,6C765.9,958.6,767.9,959.4,770.2,959.4z"/>
</svg>
