<?xml version="1.0" encoding="utf-8"?>
<!-- Generator: Adobe Illustrator 17.1.0, SVG Export Plug-In . SVG Version: 6.00 Build 0)  -->
<!DOCTYPE svg PUBLIC "-//W3C//DTD SVG 1.1//EN" "http://www.w3.org/Graphics/SVG/1.1/DTD/svg11.dtd">
<svg version="1.1" id="Layer_1" xmlns="http://www.w3.org/2000/svg" xmlns:xlink="http://www.w3.org/1999/xlink" x="0px" y="0px"
	 viewBox="206 206 100 100" enable-background="new 206 206 100 100" xml:space="preserve">
<path id="github-2-circle-outline-icon" fill="#206360" d="M300.9,254.7l0.1-1c-5-0.6-10-0.6-14.8-0.2c0.8-2.8,1.2-6,1.2-9.7
	c-0.1-7.7-2.3-13.7-5.9-18.7c0.7-4.7,0.2-9.4-1.1-14.1c-5.1,0.5-9.6,2.4-13.7,5.7c-7.6-1.8-15.2-1.9-22.8,0c-4.7-3.7-9.4-5.4-14-5.7
	c-1.4,5.2-1.6,10.3-0.4,15.3c-4,4.8-5.5,10.7-5.4,17.2c0,3.7,0.5,7,1.5,10c-5.4-0.5-10.7-0.6-14.6,0.2l0.1,1c5-0.6,10-0.6,14.8-0.2
	c0.2,0.5,0.4,1,0.6,1.5c-5.2-0.2-10,0.4-14.4,1.6l0.2,0.9c4.5-1.3,9.3-1.8,14.7-1.6c3.5,7.2,10.4,11.4,20.3,12.8
	c-2.3,2.1-3.6,4.7-3.9,7.5c0,0-1,0-5.3,0c-7.1,0-9-10.3-16.3-9.3c7.1,4,5.7,16.9,17.1,16.9c3.8,0,4.6,0,4.8,0v11.8
	c0.1,1.9-0.7,3.2-1.9,4.1c4.1,0.5,7.1-1.9,7.1-4.7c0-2.9,0-14.2,0-15.6s1.3-1.5,1.3-1.5v18.2c0.1,1.8-0.7,2.8-1.5,3.8
	c3.6,0.2,7-0.7,7.1-4.1c0,0,0-16.6,0-17.4s1.3-0.9,1.3,0s0,16.6,0,16.6c0,2.9,2.3,5.3,7,5c-1.3-1.2-1.6-2.3-1.6-4c0-1.7,0-18,0-18
	s1.3-0.1,1.3,1.5c0,1.6,0,12.6,0,15.2c0,3.4,3.6,4.8,7.6,4.6c-1.3-1.1-2.2-2.5-2.2-4.3v-18.3c-0.1-2.7-1.1-5.2-3-7.6
	c9.1-1.6,15.6-5.7,18.9-13.2c5.4-0.2,10.2,0.3,14.7,1.6l0.2-0.9c-4.5-1.3-9.2-1.8-14.5-1.6c0.2-0.5,0.4-0.9,0.5-1.4
	C290.8,254.1,295.9,254.1,300.9,254.7z M225,269.5c-0.2,0-0.4-0.1-0.4-0.3c0-0.2,0.2-0.3,0.4-0.3c0.2,0,0.4,0.1,0.4,0.3
	C225.4,269.3,225.2,269.5,225,269.5z M226.3,270.5c-0.2,0-0.5-0.2-0.5-0.4c0-0.2,0.2-0.4,0.5-0.4c0.2,0,0.4,0.2,0.4,0.4
	C226.7,270.3,226.5,270.5,226.3,270.5z M227.5,271.8c-0.3,0-0.5-0.2-0.5-0.4c0-0.2,0.2-0.4,0.5-0.4c0.3,0,0.5,0.2,0.5,0.4
	C228.1,271.6,227.8,271.8,227.5,271.8z M228.8,273.3c-0.3,0-0.6-0.2-0.6-0.5c0-0.3,0.3-0.5,0.6-0.5c0.3,0,0.6,0.2,0.6,0.5
	C229.4,273.1,229.1,273.3,228.8,273.3z M230.2,275.1c-0.4,0-0.7-0.2-0.7-0.6c0-0.3,0.3-0.6,0.7-0.6s0.7,0.2,0.7,0.6
	C230.9,274.8,230.6,275.1,230.2,275.1z M231.8,276.8c-0.4,0-0.8-0.3-0.8-0.6c0-0.3,0.3-0.6,0.8-0.6c0.4,0,0.8,0.3,0.8,0.6
	C232.6,276.6,232.2,276.8,231.8,276.8z M234,278.5c-0.5,0-0.8-0.3-0.8-0.7s0.4-0.7,0.8-0.7c0.5,0,0.8,0.3,0.8,0.7
	C234.8,278.2,234.4,278.5,234,278.5z M236.6,279.4c-0.5,0-0.8-0.3-0.8-0.7c0-0.4,0.4-0.7,0.8-0.7c0.5,0,0.8,0.3,0.8,0.7
	C237.5,279.1,237.1,279.4,236.6,279.4z M239.5,279.5c-0.5,0-0.8-0.3-0.8-0.7c0-0.4,0.4-0.7,0.8-0.7c0.5,0,0.8,0.3,0.8,0.7
	C240.3,279.2,239.9,279.5,239.5,279.5z M242.3,279.6c-0.5,0-0.8-0.3-0.8-0.7c0-0.4,0.4-0.7,0.8-0.7c0.5,0,0.8,0.3,0.8,0.7
	C243.1,279.3,242.7,279.6,242.3,279.6z"/>
</svg>
