<?xml version="1.0" encoding="utf-8"?>
<!-- Generator: Adobe Illustrator 17.1.0, SVG Export Plug-In . SVG Version: 6.00 Build 0)  -->
<!DOCTYPE svg PUBLIC "-//W3C//DTD SVG 1.1//EN" "http://www.w3.org/Graphics/SVG/1.1/DTD/svg11.dtd">
<svg version="1.1" id="Layer_1" xmlns="http://www.w3.org/2000/svg" xmlns:xlink="http://www.w3.org/1999/xlink" x="0px" y="0px"
	 viewBox="49.6 126.2 413.6 261.4" enable-background="new 49.6 126.2 413.6 261.4" xml:space="preserve">
<g display="none">
	<g display="inline">
		
			<image overflow="visible" opacity="0.31" enable-background="new    " width="88" height="167" xlink:href="66020B14CB1A3765.png"  transform="matrix(0.2264 0 0 0.2357 128.5269 69.8184)">
		</image>
		<g>
			<path fill="#DAEFEB" d="M137.1,91.9c0,3.6-2.6,6.4-5.6,6.4v6.9c7.6,0,13.8-6.2,13.8-13.8v-19l-8.3-0.5V91.9z"/>
		</g>
	</g>
	<g display="inline">
		
			<image overflow="visible" opacity="0.31" enable-background="new    " width="88" height="83" xlink:href="66020B14CB1A376F.png"  transform="matrix(0.2264 0 0 0.2371 134.1167 56.748)">
		</image>
		<g>
			<polygon fill="#B9DDD6" points="143.4,65.5 137.1,71.8 145.4,72.3 150.9,65.5 145.4,58.7 			"/>
		</g>
	</g>
</g>
<g display="none">
	
		<image display="inline" overflow="visible" opacity="0.31" enable-background="new    " width="88" height="196" xlink:href="66020B14CB1A3761.png"  transform="matrix(0.2264 0 0 0.2327 128.5269 23.9878)">
	</image>
	<g display="inline">
		<path fill="#DAEFEB" d="M131.5,32.9c3,0,5.6,2.8,5.6,6.3v20l6.3,6.4l2-6.8v-19c0-7.7-6.3-13.8-13.8-13.8V32.9L131.5,32.9z"/>
	</g>
</g>
<g display="none">
	<g display="inline">
		
			<image overflow="visible" opacity="0.31" enable-background="new    " width="88" height="167" xlink:href="66020B14CB1A3762.png"  transform="matrix(0.2264 0 0 0.2357 26.0825 69.8184)">
		</image>
		<g>
			<path fill="#DAEFEB" d="M37.3,91.9c0,3.6,2.6,6.4,5.6,6.4v6.9c-7.6,0-13.8-6.2-13.8-13.8v-19l8.3-0.5V91.9z"/>
		</g>
	</g>
	<g display="inline">
		
			<image overflow="visible" opacity="0.31" enable-background="new    " width="88" height="83" xlink:href="66020B14CB1A3763.png"  transform="matrix(0.2264 0 0 0.2371 20.5269 56.748)">
		</image>
		<g>
			<polygon fill="#B9DDD6" points="31.1,65.5 37.3,71.8 29.1,72.3 23.5,65.5 29.1,58.7 			"/>
		</g>
	</g>
</g>
<g display="none">
	
		<image display="inline" overflow="visible" opacity="0.31" enable-background="new    " width="88" height="196" xlink:href="66020B14CB1A3764.png"  transform="matrix(0.2264 0 0 0.2327 26.0825 23.9878)">
	</image>
	<g display="inline">
		<path fill="#DAEFEB" d="M42.9,32.9c-3,0-5.6,2.8-5.6,6.3v20l-6.3,6.4l-2-6.8v-19c0-7.7,6.3-13.8,13.8-13.8V32.9z"/>
	</g>
</g>
<g>
	<g>
		<path fill="#FFFFFF" d="M132.6,308.2h-8.4v-9.1h7.1v-68h10.3v68C141.6,304.1,137.6,308.2,132.6,308.2z M131.4,217.6V204h10.2v13.6
			H131.4z"/>
		<path fill="#FFFFFF" d="M166.7,261.8v6.3c0,4.8,3.9,8.4,7.8,8.4h26.4v9.1h-26.4c-10,0-18.1-8.2-18.1-18.1v-18.1
			c0-10.1,8.2-18.1,18.1-18.1h11.3c10,0,18.1,8,18.1,18.1v12.5L166.7,261.8L166.7,261.8z M193.6,248.5c0-4.8-3.9-8.3-7.8-8.3h-11.3
			c-4,0-7.8,3.5-7.8,8.3v4.2h27L193.6,248.5L193.6,248.5z"/>
		<path fill="#FFFFFF" d="M253.6,285.5v-36.9c0-4.8-3.9-8.4-7.8-8.4h-17v45.3h-10.2v-54.4h27.2c10,0,18.1,8,18.1,18.1v36.2H253.6
			L253.6,285.5z"/>
		<path fill="#FFFFFF" d="M309.2,285.5h-29.4V204H290v27.2h19.3c10.1,0,18.1,8,18.1,18.1v18.1C327.3,277.4,319.3,285.5,309.2,285.5z
			 M317.1,248.5c0-4.8-4-8.3-7.9-8.3H290v36.2h19.3c4,0,7.9-3.6,7.9-8.4V248.5z"/>
		<path fill="#FFFFFF" d="M370.4,285.5H359c-10,0-18.1-8.2-18.1-18.1v-18.1c0-10.1,8.2-18.1,18.1-18.1h11.3c10,0,18.1,8,18.1,18.1
			v18.1C388.5,277.4,380.3,285.5,370.4,285.5z M378.2,248.6c0-4.8-3.9-8.4-7.8-8.4H359c-4,0-7.8,3.6-7.8,8.4v19.5
			c0,4.8,3.8,8.4,7.8,8.4h11.3c4,0,7.8-3.6,7.8-8.4V248.6z"/>
	</g>
</g>
<g>
	<g>
		<g>
			<g>
				<path fill="#FFFFFF" d="M102.4,190.2c0-9.1,7.1-16.1,15.4-16.1v-17.4c-20.8,0-38,15.7-38,34.8v48.1L61,256.9l18.7,17.2l5.4-17.2
					l17.3-15.9L102.4,190.2L102.4,190.2z"/>
			</g>
		</g>
		<g>
			<g>
				<path fill="#FFFFFF" d="M79.7,322.2c0,19.4,17.3,34.8,38,34.8v-17.4c-8.3,0-15.4-7-15.4-15.9V273l-17.3-16.1l-5.4,17.2V322.2z"
					/>
			</g>
		</g>
	</g>
</g>
<g>
	<g>
		<g>
			<g>
				<path fill="#FFFFFF" d="M410.5,323.6c0,9.1-7.1,16.1-15.4,16.1v17.4c20.9,0,38.2-15.7,38.2-34.8v-48.1l18.8-17.2l-18.8-17.2
					l-5.5,17.2l-17.3,15.9L410.5,323.6L410.5,323.6z"/>
			</g>
		</g>
		<g>
			<g>
				<path fill="#FFFFFF" d="M433.2,191.6c0-19.4-17.3-34.8-38.2-34.8v17.4c8.3,0,15.4,7,15.4,15.9v50.7l17.3,16.1l5.5-17.2
					L433.2,191.6L433.2,191.6z"/>
			</g>
		</g>
	</g>
</g>
</svg>
