<?xml version="1.0" encoding="utf-8"?>
<!-- Generator: Adobe Illustrator 17.1.0, SVG Export Plug-In . SVG Version: 6.00 Build 0)  -->
<!DOCTYPE svg PUBLIC "-//W3C//DTD SVG 1.1//EN" "http://www.w3.org/Graphics/SVG/1.1/DTD/svg11.dtd">
<svg version="1.1" id="jenbo" xmlns="http://www.w3.org/2000/svg" xmlns:xlink="http://www.w3.org/1999/xlink" x="0px" y="0px"
	 viewBox="0 0 148 155.8" enable-background="new 0 0 148 155.8" xml:space="preserve">
<circle fill="#267775" stroke="#FFFFFF" stroke-width="7" stroke-miterlimit="10" cx="74" cy="74" r="70.5"/>
<path fill="#4C351E" d="M53.2,103.4c-0.1-4.3,2.3-1,6.3-1.9c3.9,5.5,3.2,8.4,1.8,13.6c3.9-4.7,6.5-9.1,10.4-13.9
	c3.2,4.4,4.2,6.1,7.4,10.5c0.7,1,4.5,6,7.1,3.3c0.2-4.6,0-6.7,2.5-10.3c3.8,1.7,0,0,0.4,4.3c0.4,4.3-0.3,8.7-0.1,13
	c0.3,9.9,5.4,19.4,13.2,24.8c-5-5.2-7.3-13.1-6.1-20.4c1.1,2.7,2.5,5.2,4.2,7.5c-0.5-5.2,3.3-9.7,4.8-14.7c0.9-3,0.8-6.1,1-9.2
	c1-15.7,7.7-30.4,8.7-46.1c-4.4,3.7-10.1,5.1-15.7,6.1c-5.7,1-11.4,1.7-17.2,2.4c-10.2,1.2-21.2,2.2-30-3.2
	c-1.9-1.2-3.7-2.6-5.7-3.5c-2.2-0.9-4.7-1.1-7-1.6c-3.3-0.7-6.4-2.1-9.1-4.1c-1.2,6,0,12.2,1.7,18.1c1.8,5.8,4.1,11.5,5.2,17.5
	c1.6,8.8,0.5,17.9,0.7,26.9s2,18.6,8.1,24.8c-2.9-8.9-3.3-18.8-1.2-27.9c0.7-2.9,2.5-6.3,5.3-5.8c1.4,0.3,2.5,1.6,3.2,3
	c1.5,2.9,2.3,6.2,2.2,9.6c0.8-4.4,1.6-8.9,0.6-13.2C55.1,109.8,53.3,106.8,53.2,103.4z"/>
<path fill="#5B4020" d="M34,107.5c-1.6,3.7-3.6,7.2-4.1,11.2c-0.8,6.6,0.4,16.8,5.6,21.3c-0.8-5.1-4.4-11.7,0-16.1
	c8-8,13.3-15.8,11.7-26.4C46.2,91.7,47,86,45.4,80.1c-2.4-8.7-8.9-15.2-10.9-23.9c-2.1-9.1-1-18.7,1.2-27.7
	c-5.2,8.5-9.9,21.2-9.3,30.6c0.5,8,1.2,18.1-0.1,26.1c-1.3,8.2-1,14.3,3.9,21.3c0-2.8,0.7-6.4,1.7-8.5c0.8-1.8,1.3-2.6,3-4.4
	c2.1,4.3,1.6,6.7,0.1,11.2C34.7,105.8,34.3,106.7,34,107.5z"/>
<path fill="#F7EDD5" d="M104.9,30.8c-6.5-8.4-20-11.9-30.8-12c-0.2,0-0.4,0-0.7,0c-11.6,0-25.5,4.4-32.1,13.9
	c-4.7,6.8-2.8,18.2-2.8,27.3c0,10.4,2.4,18.6,8.2,25.7c6.6,8.1,16.1,13.1,26.6,13.1c0.2,0,0.4,0,0.7,0c10.2-0.2,19.4-5.1,25.8-12.9
	c5.9-7.1,10.1-16,10.1-26.5C110,49.5,110.3,37.8,104.9,30.8z"/>
<path fill="#EADFCA" d="M73.3,18.8c-11.6,0-25.5,4.4-32.1,13.9c-4.7,6.8-2.8,18.2-2.8,27.3c0,10.4,2.4,18.6,8.2,25.7
	c6.6,8.1,16.1,13.1,26.6,13.1c0.2,0,0.4,0,0.7,0v-80C73.8,18.8,73.6,18.8,73.3,18.8z"/>
<path fill="#F7EDD5" d="M104.8,30.8c-6.5-8.4-20-11.9-30.8-12v80c10.2-0.2,19.4-5.1,25.8-12.9c5.9-7.1,10.1-16,10.1-26.5
	C109.9,49.5,110.2,37.8,104.8,30.8z"/>
<ellipse id="left-eye" cx="56.4" cy="68.5" rx="1.6" ry="5"/>
<ellipse id="right-eye" cx="90.1" cy="68.5" rx="1.6" ry="5"/>
<g>
	<g>
		<path d="M66.7,82.9c3.3,4.5,9.9,4.2,13.5,0.1c0.5-0.6-0.3-1.5-0.9-0.9c-3,3.4-8.7,4-11.5,0.1C67.3,81.7,66.2,82.3,66.7,82.9
			L66.7,82.9z"/>
	</g>
</g>
<path fill="#6D4829" d="M118.9,112.1C118.8,112.1,118.8,112.1,118.9,112.1c-0.2-1-0.4-2-1-2.7c-0.7-0.8-1.6-1-2.5-0.5
	c-2,1.1-3.3,2.9-4.2,4.9c-5.1,11.3-2.7,24.7,6.1,34.3c-3.4-1.2-6.7-2.8-9.3-4.9c-4.5-3.7-7-8.8-7.9-13.9c-0.9-5.2,2-15.5,2.5-20.7
	C96,113.4,95,120.3,96,124c-3-3.3-3.5-7.8-2.6-11.8c0.9-4.1,3-7.8,4.8-11.7c4.5-9.7,6.9-20.1,7.2-30.5c0.1-4.7-0.2-9.3-1.5-13.9
	c-1-3.4-2.5-6.6-4-9.8c-5-10.5-10.9-21.6-22.3-28.1c10,0.2,20.6,0.6,28.9,5.2c2.5,1.4,4.7,3.1,6.7,5c8.2,7.6,13.2,18.1,13.8,29.1
	c0.3,5.6-1,10.9-1.1,16.5c0,3.5-0.7,11.5,3.1,13.8c-6-3.6-6.2-8.6-6.5-10.1c-1.4,4.8,1.6,12.5,2.8,17.2c3,11.3,0.6,18.3-7,27
	c0.5-2.1,0.9-4.3,0.9-6.5C119.2,114.2,119.1,113.2,118.9,112.1z"/>
<ellipse opacity="0.55" fill="#F4D0D5" cx="52.8" cy="79.3" rx="7.7" ry="4.3"/>
<path fill="#BABABA" d="M114.1,97.4H74.2H34.4c-2.8,0-5,2.2-5,5v41.4c0,2.8,2.2,5,5,5h39.8h39.9c2.8,0,5-2.2,5-5v-41.4
	C119.1,99.7,116.9,97.4,114.1,97.4z"/>
<ellipse opacity="0.55" fill="#F4D0D5" cx="95.3" cy="79.3" rx="7.7" ry="4.3"/>
<g>
	<path fill="#B0AFB0" d="M34.4,96.7c-2.8,0-5,2.2-5,5v41.4c0,2.8,2.2,5,5,5h39.8l0-51.4H34.4z"/>
	<path fill="#BABABA" d="M114.1,96.7H74.2l0,51.4h39.9c2.8,0,5-2.2,5-5v-41.4C119.1,98.9,116.9,96.7,114.1,96.7z"/>
</g>
<circle fill="#FFFFFF" cx="74.3" cy="122.4" r="5.2"/>
<g>
	<path fill="#664624" d="M60.3,12.9C49.7,13.7,37.2,16.1,30,24.5c-6.7,7.8-7.5,18.6-8.6,28.2c-0.5,4.4-3.3,7.9-3.9,8.9
		c-0.1,0.1-0.2,0.2-0.1,0.4c1.5-0.6,3.1-2,4.3-3.1c1.3-1.2,2.8-2.3,3.7-3.8c0.2,6.1-0.1,13.3-3.3,18.7c-1.7,2.9-4.8,5-7.6,6.8
		c6.1,0,18.3-7.8,24.5-12.6c5.7-4.5,12-7.5,19.8-10.6c5.6-2.2,10.6-4.9,15.4-7.9v-37C69.3,12.2,64.5,12.5,60.3,12.9z"/>
	<path fill="#724E29" d="M92.6,20.3c-4.5-5.6-11.5-7.4-18.6-7.8v37c4.1-2.6,8.1-5.6,12-8.8C90.7,36.8,97.1,25.8,92.6,20.3z"/>
</g>
<path fill="none" d="M79.5,68.1C79.5,68.1,79.5,68.1,79.5,68.1C79.5,68.2,79.5,68.2,79.5,68.1C79.5,68.1,79.5,68.1,79.5,68.1z"/>
<path fill="none" d="M67.9,68.1C67.9,68.1,67.9,68.1,67.9,68.1C67.9,68.2,67.9,68.2,67.9,68.1C67.9,68.1,67.9,68.1,67.9,68.1z"/>
<path stroke="#000000" stroke-width="0.5" stroke-miterlimit="10" d="M112.8,58.4c-2.8-0.3-5.5-0.6-8.3-0.7c-4.7-0.3-9.5-0.5-14.2,0
	c-2.3,0.2-4.7,0.7-7,1.3c-1.2,0.4-2.4,0.8-3.5,1.5c-0.9,0.5-1.6,1.2-2.7,1.1c-1.2-0.1-1.7-0.3-2.9-0.3v3c0,0,0,0,0,0
	c2.6,0.1,2.5,1,3.1,3.4c1.1,4.2,3.6,9,7.6,11.1c3.6,1.9,8.1,2.1,12.1,1.7c4.3-0.4,9.8-1.1,11.6-5.8c0.9-2.4,1.3-5,1.7-7.5
	c0.3-2,0.5-4.1,2.5-5.1c1-0.5,1.2-0.7,1.2-1.9C114,58.9,114.2,58.6,112.8,58.4z M79.7,68.3c0,0.1,0,0.1,0,0.2
	C79.7,68.4,79.7,68.4,79.7,68.3z M105.7,76.3c-2.3,2.2-5.7,2.6-8.7,2.8c-3.5,0.3-8.5,0.6-11.6-1.4c-3.1-2-5.3-6-5.8-9.6c0,0,0,0,0,0
	c0,0,0,0,0,0c0,0,0,0,0,0c0,0,0,0,0-0.1c0,0,0,0,0,0.1c-0.4-2.9-0.2-6.6,2.9-7.8c2.5-1.1,5.5-1.4,8.2-1.6c4.2-0.4,8.8-0.1,13,0.9
	c1.7,0.4,3.3,0.7,4,2.4c0.6,1.3,0.6,2.8,0.6,4.2C108.5,69.6,108.4,73.7,105.7,76.3z"/>
<path stroke="#000000" stroke-width="0.5" stroke-miterlimit="10" d="M70.5,61.6c-1.1,0.1-1.9-0.6-2.7-1.1c-1.1-0.7-2.3-1.1-3.5-1.5
	c-2.3-0.7-4.6-1.1-7-1.3c-4.7-0.5-9.5-0.2-14.2,0c-2.8,0.2-5.5,0.4-8.3,0.7c-1.4,0.2-1.2,0.5-1.2,1.8c0,1.2,0.1,1.3,1.2,1.9
	c2,1,2.2,3.1,2.5,5.1c0.4,2.5,0.8,5.1,1.7,7.5c1.7,4.6,7.2,5.4,11.6,5.8c4,0.4,8.5,0.2,12.1-1.7c4-2.1,6.5-6.8,7.6-11.1
	c0.6-2.4,1.2-3.3,3.7-3.4v-3C72.8,61.3,71.7,61.5,70.5,61.6z M67.9,68.1C67.9,68.1,67.9,68.1,67.9,68.1
	C67.9,68.2,67.9,68.2,67.9,68.1C67.9,68.2,67.9,68.2,67.9,68.1C67.9,68.2,67.9,68.2,67.9,68.1c-0.5,3.7-2.7,7.6-5.8,9.6
	c-3.1,2-8,1.7-11.6,1.4c-3-0.2-6.4-0.7-8.7-2.8c-2.7-2.6-2.8-6.7-2.7-10.1c0.1-1.4,0.1-2.9,0.6-4.2c0.7-1.7,2.4-2,4-2.4
	c4.2-1,8.7-1.3,13-0.9c2.7,0.3,5.7,0.6,8.2,1.6C68.1,61.6,68.3,65.2,67.9,68.1C67.9,68.1,67.9,68.1,67.9,68.1z"/>
</svg>
