<?xml version="1.0" encoding="utf-8"?>
<!-- Generator: Adobe Illustrator 17.1.0, SVG Export Plug-In . SVG Version: 6.00 Build 0)  -->
<!DOCTYPE svg PUBLIC "-//W3C//DTD SVG 1.1//EN" "http://www.w3.org/Graphics/SVG/1.1/DTD/svg11.dtd">
<svg version="1.1" id="Layer_1" xmlns="http://www.w3.org/2000/svg" xmlns:xlink="http://www.w3.org/1999/xlink" x="0px" y="0px"
	 viewBox="419 450 100 100" enable-background="new 419 450 100 100" xml:space="preserve">
<path fill="#206360" d="M444.2,542.6h-19.1V480h19.1V542.6z M424.6,462.4c0-2.7,1-5,3-6.9c2-1.9,4.4-2.9,7.3-2.9
	c6.8,0,10.3,3.3,10.3,9.8c0,6.3-3.4,9.5-10.3,9.5S424.6,468.7,424.6,462.4z M492.4,478.3c7.2,0,12.7,2.5,16.5,7.5
	c3.8,5,5.7,11.6,5.7,19.9v36.9h-19.4v-34.9c0-9.2-3.1-13.8-9.4-13.8c-3.2,0-5.8,1.1-7.8,3.3c-2,2.2-3,5.2-3,9.1v36.3h-19.4v-42.7
	c0-10.8-0.1-17.4-0.3-19.9h16.5l1.1,8.4C477.4,481.6,483.8,478.3,492.4,478.3z"/>
</svg>
