<?xml version="1.0" encoding="utf-8"?>
<!-- Generator: Adobe Illustrator 17.1.0, SVG Export Plug-In . SVG Version: 6.00 Build 0)  -->
<!DOCTYPE svg PUBLIC "-//W3C//DTD SVG 1.1//EN" "http://www.w3.org/Graphics/SVG/1.1/DTD/svg11.dtd">
<svg version="1.1" id="Layer_1" xmlns="http://www.w3.org/2000/svg" xmlns:xlink="http://www.w3.org/1999/xlink" x="0px" y="0px"
	 viewBox="206 206 100 100" enable-background="new 206 206 100 100" xml:space="preserve">
<path fill="#206360" d="M300.6,282.8l-0.4-1.3c-1.1-3.2-4.5-6.4-7.7-7.3l-11.8-3.2c-3.2-0.9-7.8,0.3-10.1,2.6l-4.3,4.3
	c-15.6-4.2-27.7-16.4-31.9-32l4.3-4.3c2.3-2.3,3.5-6.9,2.6-10.1l-3.2-11.8c-0.9-3.2-4.2-6.7-7.3-7.7l-1.3-0.5c-3.2-1-7.7,0-10,2.4
	l-6.4,6.4c-1.1,1.1-1.9,4.4-1.9,4.4c-0.2,20.3,7.7,39.9,22.1,54.3c14.3,14.3,33.8,22.3,54.1,22.1c0.1,0,3.5-0.7,4.6-1.9l6.4-6.4
	C300.6,290.4,301.7,285.9,300.6,282.8z"/>
</svg>
