<?xml version="1.0" encoding="utf-8"?>
<!-- Generator: Adobe Illustrator 17.1.0, SVG Export Plug-In . SVG Version: 6.00 Build 0)  -->
<!DOCTYPE svg PUBLIC "-//W3C//DTD SVG 1.1//EN" "http://www.w3.org/Graphics/SVG/1.1/DTD/svg11.dtd">
<svg version="1.1"
	 id="svg2" xmlns:dc="http://purl.org/dc/elements/1.1/" xmlns:cc="http://creativecommons.org/ns#" xmlns:rdf="http://www.w3.org/1999/02/22-rdf-syntax-ns#"
	 xmlns="http://www.w3.org/2000/svg" xmlns:xlink="http://www.w3.org/1999/xlink" x="0px" y="0px" viewBox="41.1 24.1 100 100"
	 enable-background="new 41.1 24.1 100 100" xml:space="preserve">
<g id="g10" transform="matrix(1.3333 0 0 -1.3333 0 150.67)">
	<g id="g12" transform="scale(.1)">
		<g id="g14">
			<g>
				<g id="g16">
					<path id="path22" fill="#206360" d="M1034.1,830.2c-25.9-13.2-53.8-22.1-83-26.1c29.8,20.5,52.8,52.9,63.6,91.5
						c-27.9-19-58.9-32.7-91.8-40.1c-26.4,32.1-63.9,52.2-105.5,52.2c-79.8,0-144.6-74.1-144.6-165.4c0-13,1.3-25.6,3.7-37.7
						c-120.2,6.9-226.7,72.8-298,172.8c-12.4-24.4-19.6-52.8-19.6-83.2c0-57.4,25.5-108,64.3-137.7c-23.7,0.8-46,8.3-65.5,20.7
						c0-0.7,0-1.4,0-2.1c0-80.2,49.8-147,116-162.2c-12.1-3.8-24.9-5.8-38.1-5.8c-9.3,0-18.4,1-27.2,2.9
						c18.4-65.7,71.8-113.5,135.1-114.9C494,351,431.6,324.5,363.9,324.5c-11.7,0-23.2,0.8-34.5,2.3c64-46.9,140-74.3,221.6-74.3
						c265.9,0,411.3,252.1,411.3,470.7c0,7.2-0.1,14.3-0.4,21.4C990.2,767.9,1014.7,797.1,1034.1,830.2"/>
				</g>
			</g>
		</g>
	</g>
</g>
</svg>
